<?xml version="1.0" standalone="no"?>
<!DOCTYPE svg PUBLIC "-//W3C//DTD SVG 20010904//EN"
 "http://www.w3.org/TR/2001/REC-SVG-20010904/DTD/svg10.dtd">
<svg version="1.0" xmlns="http://www.w3.org/2000/svg"
 width="302.000000pt" height="50.000000pt" viewBox="0 0 302.000000 50.000000"
 preserveAspectRatio="xMidYMid meet">

<g transform="translate(0.000000,50.000000) scale(0.100000,-0.100000)"
fill="#000000" stroke="none">
<path d="M272 424 c-41 -29 -50 -40 -41 -50 6 -8 8 -14 3 -14 -5 0 -15 -4 -23
-9 -12 -8 1 -27 62 -94 42 -47 77 -92 77 -101 0 -9 7 -16 15 -16 19 0 20 19 2
34 -8 6 -31 49 -51 96 l-38 84 38 33 c38 32 61 43 49 23 -4 -6 40 -10 124 -10
82 0 131 4 133 11 2 5 21 -5 43 -24 l39 -34 -38 -84 c-39 -87 -52 -107 -61
-97 -3 3 10 43 30 89 31 73 33 85 20 98 -17 17 -14 25 -49 -112 -29 -109 -30
-119 -16 -97 6 10 10 11 10 3 0 -7 7 -13 15 -13 8 0 15 7 15 15 0 8 36 54 79
102 78 86 79 88 55 96 -19 7 -22 12 -14 22 9 11 0 21 -42 49 l-53 36 -165 0
-166 0 -52 -36z"/>
<path d="M1513 318 c-28 -80 -29 -83 -10 -86 11 -2 24 3 29 12 11 20 57 21 64
1 7 -18 44 -20 44 -2 -1 6 -13 44 -28 82 -20 52 -33 71 -48 73 -18 3 -25 -9
-51 -80z m61 -20 c-9 -14 -23 2 -17 18 4 12 8 13 14 3 4 -7 5 -17 3 -21z"/>
<path d="M1660 315 l0 -85 56 0 c47 0 55 3 52 18 -2 11 -13 17 -33 17 -30 1
-30 1 -33 68 -3 59 -5 67 -22 67 -18 0 -20 -7 -20 -85z"/>
<path d="M1757 394 c-14 -14 -6 -33 15 -36 20 -3 22 -8 19 -65 -2 -62 -2 -63
23 -63 25 0 26 2 26 65 0 59 2 65 21 65 14 0 19 5 17 18 -2 13 -15 18 -58 20
-31 2 -59 0 -63 -4z"/>
<path d="M1926 391 c-3 -4 -19 -42 -35 -85 l-29 -76 23 0 c12 0 25 7 29 15 3
8 17 15 31 15 14 0 28 -7 31 -15 4 -8 16 -15 29 -15 l22 0 -26 73 c-14 39 -30
78 -34 85 -9 14 -33 16 -41 3z m28 -93 c-9 -14 -23 2 -17 18 4 12 8 13 14 3 4
-7 5 -17 3 -21z"/>
<path d="M2050 316 c0 -80 1 -86 20 -86 20 0 21 5 18 82 -3 70 -6 83 -20 86
-16 3 -18 -6 -18 -82z"/>
<path d="M2120 315 c0 -78 2 -85 20 -85 15 0 20 7 20 25 0 14 4 25 10 25 5 0
17 -11 26 -25 9 -14 25 -25 35 -25 23 0 24 9 5 35 -12 16 -12 22 1 42 32 48
-8 93 -82 93 l-35 0 0 -85z m85 25 c0 -8 -10 -16 -22 -18 -18 -3 -23 2 -23 18
0 16 5 21 23 18 12 -2 22 -10 22 -18z"/>
<path d="M322 358 c-8 -10 0 -37 31 -105 22 -51 42 -91 45 -89 4 5 -49 188
-58 199 -4 4 -12 2 -18 -5z"/>
<path d="M380 358 c0 -6 16 -72 36 -146 19 -75 33 -144 31 -154 -3 -11 1 -22
9 -25 20 -7 29 4 16 19 -5 7 -18 74 -27 148 l-16 134 23 18 c23 18 23 18 -24
18 -31 0 -48 -4 -48 -12z"/>
<path d="M534 351 c17 -18 17 -27 2 -152 -9 -73 -21 -138 -27 -145 -7 -8 -7
-14 1 -19 15 -9 29 3 24 23 -3 9 13 83 35 165 l39 147 -46 0 c-44 0 -45 -1
-28 -19z"/>
<path d="M471 337 c-8 -10 -9 -28 -2 -63 16 -82 20 -134 10 -140 -12 -7 -2
-24 14 -24 8 0 13 28 15 88 1 48 4 100 5 117 2 33 -22 46 -42 22z m29 -17 c0
-5 -4 -10 -10 -10 -5 0 -10 5 -10 10 0 6 5 10 10 10 6 0 10 -4 10 -10z"/>
<path d="M920 123 c0 -21 4 -33 8 -27 4 7 18 14 32 15 40 6 34 43 -7 47 -32 3
-33 2 -33 -35z m55 12 c0 -5 -10 -11 -22 -13 -16 -2 -23 2 -23 13 0 11 7 15
23 13 12 -2 22 -7 22 -13z"/>
<path d="M1020 141 c-5 -11 -10 -28 -10 -37 0 -14 3 -15 12 -6 16 16 45 15 51
0 3 -7 6 4 6 25 1 33 -2 37 -24 37 -14 0 -29 -8 -35 -19z m50 -6 c0 -8 -9 -15
-20 -15 -20 0 -26 11 -13 23 12 13 33 7 33 -8z"/>
<path d="M1114 146 c-12 -31 1 -51 34 -54 27 -3 32 0 32 17 0 15 -6 21 -22 20
-17 -1 -19 -2 -5 -6 25 -7 21 -25 -5 -21 -36 5 -30 41 7 49 l30 7 -33 1 c-20
1 -35 -5 -38 -13z"/>
<path d="M1213 125 c0 -22 2 -30 4 -17 2 12 2 30 0 40 -3 9 -5 -1 -4 -23z"/>
<path d="M1257 153 c-11 -10 -8 -63 3 -63 6 0 10 10 10 22 l0 21 23 -21 c13
-12 26 -22 30 -22 11 0 8 58 -3 65 -6 3 -10 -4 -10 -16 l0 -22 -23 21 c-13 12
-27 19 -30 15z"/>
<path d="M1361 141 c-14 -25 -14 -51 -1 -51 6 0 10 5 10 10 0 6 9 10 20 10 11
0 20 -4 20 -10 0 -5 5 -10 11 -10 6 0 9 14 7 33 -2 26 -8 33 -30 35 -18 2 -30
-3 -37 -17z m49 -6 c0 -8 -9 -15 -20 -15 -20 0 -26 11 -13 23 12 13 33 7 33
-8z"/>
<path d="M1455 150 c-9 -15 4 -30 25 -30 33 0 31 -19 -2 -23 -32 -4 -32 -4 5
-5 32 -2 38 1 35 16 -2 9 -13 18 -26 20 -29 4 -28 19 1 25 19 4 19 4 -5 6 -15
0 -30 -3 -33 -9z"/>
<path d="M1593 139 c4 -13 7 -30 7 -36 0 -21 18 -15 26 9 l6 21 17 -22 c20
-27 31 -18 30 23 -1 24 -3 26 -6 9 -5 -27 -18 -30 -27 -6 -6 14 -8 14 -21 -3
-13 -17 -14 -17 -15 -2 0 9 -5 20 -12 24 -8 5 -9 0 -5 -17z"/>
<path d="M1712 128 c3 -28 7 -33 31 -34 25 -1 25 -1 2 3 -34 6 -32 23 3 24
l27 1 -30 8 c-29 7 -28 9 15 23 8 3 0 6 -18 6 -32 1 -33 -1 -30 -31z"/>
<path d="M1800 126 c0 -35 1 -36 36 -36 34 0 35 1 32 33 -3 28 -7 32 -35 35
-32 3 -33 2 -33 -32z m50 14 c0 -5 -9 -10 -21 -10 -11 0 -17 5 -14 10 3 6 13
10 21 10 8 0 14 -4 14 -10z m10 -30 c0 -5 -9 -10 -20 -10 -11 0 -20 5 -20 10
0 6 9 10 20 10 11 0 20 -4 20 -10z"/>
<path d="M1941 148 c-1 -10 7 -26 17 -36 16 -16 19 -17 35 -2 9 9 17 25 16 36
0 17 -1 16 -9 -3 -5 -13 -16 -23 -23 -23 -8 0 -19 10 -25 23 -8 17 -11 18 -11
5z"/>
<path d="M2085 150 c-10 -16 4 -30 31 -30 36 0 29 -18 -8 -23 -32 -4 -32 -4 5
-5 31 -2 37 1 37 18 0 15 -7 20 -25 20 -34 0 -32 18 3 23 26 4 25 4 -5 6 -17
0 -35 -3 -38 -9z"/>
<path d="M2184 146 c-10 -27 1 -51 26 -54 31 -5 53 23 39 49 -12 22 -57 25
-65 5z m54 -24 c3 -16 -2 -22 -17 -22 -24 0 -35 15 -27 36 9 23 40 13 44 -14z"/>
<path d="M2280 123 c0 -31 2 -34 13 -21 6 9 21 18 32 21 14 3 11 5 -9 6 -32 1
-26 15 9 24 13 3 9 5 -12 6 -32 1 -33 -1 -33 -36z"/>
<path d="M2378 153 c6 -2 12 -18 12 -34 0 -16 5 -29 10 -29 6 0 10 13 10 29 0
16 6 32 13 34 6 3 -4 5 -23 5 -19 0 -29 -2 -22 -5z"/>
<path d="M2461 143 c-1 -12 2 -29 6 -38 5 -16 8 -15 23 5 l18 23 6 -21 c8 -24
26 -30 26 -9 0 6 3 23 6 37 l5 25 -15 -25 c-13 -23 -15 -24 -22 -6 -7 18 -8
18 -20 1 -13 -17 -14 -17 -23 6 -9 23 -10 23 -10 2z"/>
<path d="M2587 154 c-4 -4 -7 -21 -6 -38 0 -17 3 -25 6 -18 6 14 43 16 43 2 0
-5 5 -10 11 -10 6 0 9 14 7 33 -2 26 -8 33 -28 35 -14 2 -29 0 -33 -4z m43
-19 c0 -8 -9 -15 -20 -15 -20 0 -26 11 -13 23 12 13 33 7 33 -8z"/>
<path d="M2677 153 c-11 -10 -8 -63 3 -63 6 0 10 14 10 30 0 23 4 30 20 30 11
0 20 -4 20 -10 0 -5 -7 -10 -15 -10 -18 0 -19 -12 -3 -28 15 -15 32 -16 23 -2
-4 6 -1 17 5 25 6 8 9 19 5 25 -7 11 -58 14 -68 3z"/>
<path d="M2776 152 c-3 -5 -3 -17 -1 -28 2 -10 4 -22 4 -26 1 -5 16 -7 34 -7
30 2 30 2 5 6 -34 5 -37 20 -5 26 l22 4 -22 2 c-32 2 -29 19 5 24 26 4 25 4
-5 6 -17 0 -34 -3 -37 -7z"/>
<path d="M400 115 c0 -8 7 -15 15 -15 8 0 15 7 15 15 0 8 -7 15 -15 15 -8 0
-15 -7 -15 -15z"/>
<path d="M560 116 c0 -9 7 -16 16 -16 9 0 14 5 12 12 -6 18 -28 21 -28 4z"/>
</g>
</svg>
